# xmcd
#
# Track frame offsets: 
#        150
#        2985
#        16757
#        38762
#        53702
#        57790
#        70155
#        84607
#        88765
#        91582
#        108960
#        113085
#        132420
#        140192
#
# Disc length: 2090 seconds
#
# Revision: 2
# Processed by: cddbd v1.5.2PL0 Copyright (c) Steve Scherf et al.
# Submitted via: ExactAudioCopy v0.95b4
#
DISCID=b108280e
DTITLE=Willie Nelson - Tougher Than Leather
DYEAR=1983
DGENRE=Country
TTITLE0=My Love For The Rose
TTITLE1=Changing Skies
TTITLE2=Tougher Than Leather
TTITLE3=Little Old Fashioned Karma
TTITLE4=Somewhere In Texas (Part I)
TTITLE5=Beer Barrel Polka
TTITLE6=Summer Of Roses
TTITLE7=Somewhere In Texas (Part II)
TTITLE8=My Love For The Rose
TTITLE9=The Convict And The Rose
TTITLE10=Changing Skies
TTITLE11=I Am The Forest
TTITLE12=Nobody Slides, My Friend
TTITLE13=Summer Of Roses - December Day (Bonus Track)
EXTD=
EXTT0=
EXTT1=
EXTT2=
EXTT3=
EXTT4=
EXTT5=
EXTT6=
EXTT7=
EXTT8=
EXTT9=
EXTT10=
EXTT11=
EXTT12=
EXTT13=
PLAYORDER=
